<svg xmlns="http://www.w3.org/2000/svg" viewBox="0 0 512 512" width="512" height="512" role="img" aria-label="Manabi Map アイコン: 地図ピンと校舎">
  <defs>
    <clipPath id="rounded-bg">
      <rect x="0" y="0" width="512" height="512" rx="96" ry="96" />
    </clipPath>
  </defs>

  <!-- 背景 -->
  <g clip-path="url(#rounded-bg)">
    <rect x="0" y="0" width="512" height="512" fill="#f7f3ea" />
  </g>

  <!-- 地図ピン（オレンジ・校舎を内包する形） -->
  <g>
    <path
      d="M256 72
         c-84 0-152 66-152 148
         c0 108 152 220 152 220
         s152-112 152-220
         c0-82-68-148-152-148z"
      fill="#ff7a3d"
      stroke="#241f1a"
      stroke-width="12"
      stroke-linejoin="round"
    />

    <!-- ピン内部の校舎シルエット（クリーム地・黒縁） -->
    <g transform="translate(256 214)">
      <!-- 校舎本体 -->
      <rect
        x="-66" y="-6" width="132" height="82"
        fill="#f7f3ea" stroke="#241f1a" stroke-width="11" stroke-linejoin="round"
      />
      <!-- 三角屋根 -->
      <path
        d="M-80 -6 L0 -66 L80 -6 Z"
        fill="#f7f3ea" stroke="#241f1a" stroke-width="11" stroke-linejoin="round"
      />
      <!-- 屋根の旗ポール -->
      <line x1="0" y1="-66" x2="0" y2="-96" stroke="#241f1a" stroke-width="8" stroke-linecap="round" />
      <!-- 旗 -->
      <path d="M0 -94 L30 -84 L0 -74 Z" fill="#ff7a3d" stroke="#241f1a" stroke-width="7" stroke-linejoin="round" />
      <!-- 入口ドア（アーチ） -->
      <path
        d="M-16 76 L-16 34 A16 16 0 0 1 16 34 L16 76 Z"
        fill="#ff7a3d" stroke="#241f1a" stroke-width="8" stroke-linejoin="round"
      />
      <!-- 窓（左右各1・大きめで小サイズでも見える） -->
      <rect x="-52" y="20" width="24" height="24" fill="#ff7a3d" stroke="#241f1a" stroke-width="8" stroke-linejoin="round" />
      <rect x="28" y="20" width="24" height="24" fill="#ff7a3d" stroke="#241f1a" stroke-width="8" stroke-linejoin="round" />
    </g>
  </g>
</svg>
